<svg fill="#ffffff" xmlns="http://www.w3.org/2000/svg" xmlns:xlink="http://www.w3.org/1999/xlink" version="1.1" x="0px" y="0px" viewBox="0 0 100 90" style="enable-background:new 0 0 100 100;" xml:space="preserve"><title>Artboard 69</title><path d="M80,29a14.86,14.86,0,0,1-1.5,6.43A17.93,17.93,0,0,1,86,51.33C85.28,60.54,76.37,68,67.14,68H56V95a3,3,0,0,1-3,3H47a3,3,0,0,1-3-3V68H32.86C23.63,68,14.72,60.54,14,51.33a17.93,17.93,0,0,1,7.45-15.9A14.91,14.91,0,0,1,35,14c.1,0,.2,0,.3,0a15,15,0,0,1,29.4,0c.1,0,.2,0,.3,0A15,15,0,0,1,80,29Z"></path></svg>