<svg fill="#1c313a" xmlns="http://www.w3.org/2000/svg" xmlns:xlink="http://www.w3.org/1999/xlink" viewBox="0 0 24 24" version="1.1" x="0px" y="0px"><title>icon-user</title><desc>Created with Sketch.</desc><g stroke="none" stroke-width="1" fill="none" fill-rule="evenodd"><path d="M3.62086811,23 L20.5253512,23 C21.1039352,23 21.5729702,22.530965 21.5729702,21.952381 C21.5729702,21.8991193 21.5689084,21.8459352 21.5608202,21.7932912 L20.5813424,15.4181541 C20.3814119,12.2487105 17.6235069,10.9446851 14.4296144,10.9446851 L9.71660491,10.9446851 C6.51776066,10.9446851 3.76480993,12.2486696 3.56487692,15.4181541 L2.58539908,21.7932912 C2.49753623,22.365165 2.8899046,22.8999871 3.46177836,22.98785 C3.51442232,22.9959382 3.56760644,23 3.62086811,23 Z M12.0384459,9.88221936 C14.5045874,9.88221936 16.50379,7.89386682 16.50379,5.44110968 C16.50379,2.98835253 14.5045874,1 12.0384459,1 C9.5723045,1 7.57310185,2.98835253 7.57310185,5.44110968 C7.57310185,7.89386682 9.5723045,9.88221936 12.0384459,9.88221936 Z" fill="#1c313a" fill-rule="nonzero"></path></g></svg>