<svg fill="#ffffff" xmlns="http://www.w3.org/2000/svg" xmlns:xlink="http://www.w3.org/1999/xlink" version="1.1" x="0px" y="0px" viewBox="0 0 100 100" style="enable-background:new 0 0 100 100;" xml:space="preserve"><g><g><path d="M50,85.9c-16.1,0-29.2-13.1-29.2-29.2c0-15.8,27.1-41.1,28.2-42.1c0.6-0.5,1.4-0.5,2,0c1.2,1.1,28.2,26.4,28.2,42.1    C79.2,72.8,66.1,85.9,50,85.9z M50,17.6c-4.9,4.7-26.3,26.2-26.3,39.1C23.7,71.2,35.5,83,50,83s26.3-11.8,26.3-26.3    C76.3,43.7,54.9,22.3,50,17.6z"></path></g><g><path d="M41.5,73.4c-0.3,0-0.6-0.1-0.9-0.3c-7.8-6.3-8.1-13.9-6.9-19.1c1.3-5.6,4.3-9.6,4.4-9.8c0.5-0.6,1.4-0.8,2-0.3    c0.6,0.5,0.8,1.4,0.3,2c-0.1,0.1-2.8,3.8-3.9,8.7c-1.4,6.4,0.6,11.8,5.9,16.1c0.6,0.5,0.7,1.4,0.2,2    C42.3,73.3,41.9,73.4,41.5,73.4z"></path></g></g></svg>