<svg fill="#ffffff" xmlns="http://www.w3.org/2000/svg" data-name="Layer 1" viewBox="0 0 100 100" x="0px" y="0px"><title>Ocean Icons</title><path d="M73,81H66.51a16.35,16.35,0,0,0,3.07-6.65A2,2,0,0,0,68,72l-2.16-.45,1.81-26.87.76.16a2,2,0,0,0,2.36-1.55l1.66-8a2,2,0,0,0-1.55-2.36l-8.06-1.67.43-2.09,7.86,1.63a2,2,0,0,0,2.08-3.06L65.44,15.85a2,2,0,0,0-3.63.69l-2,9.77v.1l-.83,4L51.88,29a2,2,0,0,0-2.36,1.55l-1.66,8a2,2,0,0,0,1.55,2.36l.76.16-9,25.38L40,66.18a2,2,0,0,0-2.36,1.55,16.23,16.23,0,0,0,.95,9.67,2,2,0,1,0,3.68-1.56,12.22,12.22,0,0,1-1-5.3l23.8,4.93a12.33,12.33,0,0,1-3.72,5.13A2,2,0,0,0,61,81H36a2,2,0,0,0,0,4H73a2,2,0,0,0,0-4ZM64.75,22.08l2.49,3.79-3.13-.65ZM62.81,57.5l-9.37-5.91,10.1-4.89ZM53,33.27l15.11,3.13-.85,4.1-1-.22h0l-13-2.7h0l-1-.22Zm8.25,10.07L52,47.84l2.13-6ZM49.8,54l9.58,6-8.59,2.68A2,2,0,1,0,52,66.57l10.43-3.26-.5,7.41L45.1,67.24Z"></path><path d="M29,81H28a2,2,0,0,0,0,4h1a2,2,0,0,0,0-4Z"></path></svg>