<svg fill="#1c313a" xmlns="http://www.w3.org/2000/svg" xmlns:xlink="http://www.w3.org/1999/xlink" viewBox="0 0 24 24" version="1.1" x="0px" y="0px"><title>2/icons/logout-24-black</title><desc>Created with Sketch.</desc><g stroke="none" stroke-width="1" fill="none" fill-rule="evenodd"><g fill-rule="nonzero" fill="#1c313a"><path d="M14.5857864,11 L12.2928932,8.70710678 C11.9023689,8.31658249 11.9023689,7.68341751 12.2928932,7.29289322 C12.6834175,6.90236893 13.3165825,6.90236893 13.7071068,7.29289322 L17.7071068,11.2928932 C18.0976311,11.6834175 18.0976311,12.3165825 17.7071068,12.7071068 L13.7071068,16.7071068 C13.3165825,17.0976311 12.6834175,17.0976311 12.2928932,16.7071068 C11.9023689,16.3165825 11.9023689,15.6834175 12.2928932,15.2928932 L14.5857864,13 L7,13 C6.44771525,13 6,12.5522847 6,12 C6,11.4477153 6.44771525,11 7,11 L14.5857864,11 Z M20.571673,6.84961925 C20.8561207,7.32301968 20.7029442,7.93737695 20.2295438,8.22182463 C19.7561434,8.5062723 19.1417861,8.35309583 18.8573384,7.8796954 C16.581757,4.09249198 11.6668988,2.8670802 7.8796954,5.14266159 C4.09249198,7.41824299 2.8670802,12.3331012 5.14266159,16.1203046 C7.41824299,19.907508 12.3331012,21.1329198 16.1203046,18.8573384 C17.2565479,18.1746146 18.185302,17.2409673 18.852814,16.1313008 C19.1374989,15.658043 19.7519329,15.5051745 20.2251907,15.7898594 C20.6984485,16.0745443 20.8513171,16.6889783 20.5666321,17.1622361 C19.7315245,18.550512 18.5687052,19.7194577 17.1503807,20.571673 C12.4163765,23.4161498 6.27280374,21.884385 3.42832699,17.1503807 C0.58385025,12.4163765 2.11561497,6.27280374 6.84961925,3.42832699 C11.5836235,0.58385025 17.7271963,2.11561497 20.571673,6.84961925 Z"></path></g></g></svg>