<svg xmlns="http://www.w3.org/2000/svg" xmlns:xlink="http://www.w3.org/1999/xlink" viewBox="0 0 100 100"><rect width="100%" height="100%" fill="#F4F4F4" rx="50" ry="50"></rect><g transform="translate(50 50) scale(0.69 0.69) rotate(0) translate(-50 -50)" style="fill:#1c313a"><svg fill="#1c313a" xmlns="http://www.w3.org/2000/svg" xmlns:xlink="http://www.w3.org/1999/xlink" version="1.1" x="0px" y="0px" viewBox="0 0 100 100" enable-background="new 0 0 100 100" xml:space="preserve"><g><path d="M46.759,60.918c6.021,0,10.918-4.898,10.918-10.918c0-6.02-4.897-10.918-10.918-10.918c-4.916,0-9.081,3.268-10.444,7.744   H11.026v6.348h25.289C37.678,57.65,41.843,60.918,46.759,60.918z M46.759,41.463c4.707,0,8.536,3.829,8.536,8.536   c0,4.708-3.829,8.536-8.536,8.536S38.223,54.707,38.223,50C38.223,45.292,42.052,41.463,46.759,41.463z"></path><path d="M33.751,63.008c-1.085-1.086-2.846-1.086-3.931,0c-1.085,1.084-1.085,2.844,0.001,3.93   c4.669,4.67,10.803,7.004,16.938,7.004c6.134,0,12.268-2.334,16.938-7.004c9.34-9.34,9.34-24.538,0-33.877   c-9.34-9.339-24.535-9.339-33.876,0.001c-1.085,1.085-1.085,2.845,0,3.931c1.085,1.084,2.845,1.084,3.931,0   c7.172-7.172,18.842-7.173,26.015-0.001s7.173,18.843,0,26.017C52.593,70.178,40.923,70.178,33.751,63.008z"></path><path d="M23.302,70.648c-0.775,0.773-0.775,2.031,0,2.807c6.266,6.266,14.596,9.717,23.457,9.717l0,0   c8.861,0,17.192-3.451,23.456-9.717c12.935-12.934,12.935-33.979,0-46.913c-6.265-6.266-14.595-9.716-23.456-9.715   c-8.861,0-17.191,3.45-23.457,9.716c-0.775,0.775-0.775,2.032,0,2.807c0.774,0.775,2.032,0.775,2.807,0   c11.387-11.386,29.913-11.387,41.3,0c11.386,11.387,11.386,29.915,0,41.299c-5.516,5.516-12.849,8.553-20.649,8.553   s-15.135-3.037-20.65-8.553C25.333,69.873,24.076,69.873,23.302,70.648z"></path><path d="M76.623,20.133C60.156,3.666,33.36,3.666,16.893,20.135c-0.466,0.465-0.466,1.219,0,1.684c0.466,0.465,1.22,0.465,1.685,0   C34.116,6.28,59.4,6.279,74.939,21.818c15.539,15.54,15.539,40.825,0,56.364S34.117,93.721,18.577,78.18   c-0.465-0.465-1.219-0.465-1.685,0s-0.466,1.219,0,1.686c8.235,8.234,19.05,12.352,29.866,12.352   c10.815-0.002,21.632-4.117,29.864-12.352C93.092,63.398,93.092,36.602,76.623,20.133z"></path></g></svg></g></svg>