<svg fill="#1c313a" xmlns="http://www.w3.org/2000/svg" xmlns:xlink="http://www.w3.org/1999/xlink" version="1.1" x="0px" y="0px" viewBox="0 0 100 100" style="enable-background:new 0 0 100 100;" xml:space="preserve"><g><path d="M91.9,41h-9.3v0c-0.7-2.7-1.7-5.4-3.1-7.8l6.5-6.5c1.2-1.2,1.2-3.1,0-4.4L77.6,14c-1.2-1.2-3.1-1.2-4.4,0l-6.4,6.4   c-2.5-1.4-5.1-2.5-7.9-3.2v0V8.1C59,6.4,57.6,5,55.9,5H44.1C42.4,5,41,6.4,41,8.1v9.5v0c-2.6,0.8-5.1,1.9-7.4,3.3L26.7,14   c-1.2-1.2-3.1-1.2-4.4,0L14,22.4c-1.2,1.2-1.2,3.1,0,4.4l7.3,7.3c-1.1,2.2-2,4.5-2.6,7v0H8.1C6.4,41,5,42.4,5,44.1v11.8   C5,57.6,6.4,59,8.1,59h11.1c0.7,2.2,1.6,4.3,2.8,6.4L14,73.3c-1.2,1.2-1.2,3.1,0,4.4l8.4,8.4c1.2,1.2,3.1,1.2,4.4,0l8-8   c2,1.1,4.1,2,6.3,2.7v11.2c0,1.7,1.4,3.1,3.1,3.1h11.8c1.7,0,3.1-1.4,3.1-3.1V81.1c2.3-0.6,4.6-1.5,6.8-2.6l7.5,7.5   c1.2,1.2,3.1,1.2,4.4,0l8.4-8.4c1.2-1.2,1.2-3.1,0-4.4l-7.1-7.1c1.4-2.3,2.5-4.7,3.2-7.2h9.8c1.7,0,3.1-1.4,3.1-3.1V44.1   C95,42.4,93.6,41,91.9,41z M61.4,58.1c-2.7,3.2-6.6,5-10.7,5s-8-1.8-10.7-5c-4.3-5.1-4.3-12.8,0-17.9c2.7-3.2,6.6-5,10.7-5   s8,1.8,10.7,5C65.7,45.3,65.7,53,61.4,58.1z"></path></g></svg>