<svg fill="#1c313a" xmlns="http://www.w3.org/2000/svg" xmlns:xlink="http://www.w3.org/1999/xlink" version="1.1" x="0px" y="0px" viewBox="0 0 64 64" enable-background="new 0 0 64 64" xml:space="preserve"><g><path d="M22.4,4.2c10,0,18.1,8.1,18.1,18.1s-8.1,18.1-18.1,18.1c-10,0-18.1-8.1-18.1-18.1S12.4,4.2,22.4,4.2 M22.4,0   C10,0,0,10,0,22.4s10,22.4,22.4,22.4s22.4-10,22.4-22.4S34.7,0,22.4,0L22.4,0z"></path><path d="M22.4,32c-2.7,0-5.1-1.1-6.8-2.8l-3,3c2.5,2.5,6,4.1,9.8,4.1s7.3-1.6,9.8-4.1l-3-3C27.4,30.9,25,32,22.4,32z"></path><polygon points="24.5,18.3 24.5,8.5 20.3,8.5 20.3,18.3 13,18.3 22.4,27.7 31.8,18.3  "></polygon></g></svg>