<svg xmlns="http://www.w3.org/2000/svg" xmlns:xlink="http://www.w3.org/1999/xlink" viewBox="0 0 100 100"><rect width="100%" height="100%" fill="#F4F4F4" rx="50" ry="50"></rect><g transform="translate(50 50) scale(0.69 0.69) rotate(0) translate(-50 -50)" style="fill:#1c313a"><svg fill="#1c313a" xmlns:x="http://ns.adobe.com/Extensibility/1.0/" xmlns:i="http://ns.adobe.com/AdobeIllustrator/10.0/" xmlns:graph="http://ns.adobe.com/Graphs/1.0/" xmlns="http://www.w3.org/2000/svg" xmlns:xlink="http://www.w3.org/1999/xlink" version="1.1" x="0px" y="0px" viewBox="0 0 100 100" style="enable-background:new 0 0 100 100;" xml:space="preserve"><g><g i:extraneous="self"><g><path d="M5273.1,2400.1v-2c0-2.8-5-4-9.7-4s-9.7,1.3-9.7,4v2c0,1.8,0.7,3.6,2,4.9l5,4.9c0.3,0.3,0.4,0.6,0.4,1v6.4     c0,0.4,0.2,0.7,0.6,0.8l2.9,0.9c0.5,0.1,1-0.2,1-0.8v-7.2c0-0.4,0.2-0.7,0.4-1l5.1-5C5272.4,2403.7,5273.1,2401.9,5273.1,2400.1z      M5263.4,2400c-4.8,0-7.4-1.3-7.5-1.8v0c0.1-0.5,2.7-1.8,7.5-1.8c4.8,0,7.3,1.3,7.5,1.8C5270.7,2398.7,5268.2,2400,5263.4,2400z"></path><path d="M5268.4,2410.3c-0.6,0-1,0.4-1,1c0,0.6,0.4,1,1,1h4.3c0.6,0,1-0.4,1-1c0-0.6-0.4-1-1-1H5268.4z"></path><path d="M5272.7,2413.7h-4.3c-0.6,0-1,0.4-1,1c0,0.6,0.4,1,1,1h4.3c0.6,0,1-0.4,1-1C5273.7,2414.1,5273.3,2413.7,5272.7,2413.7z"></path><path d="M5272.7,2417h-4.3c-0.6,0-1,0.4-1,1c0,0.6,0.4,1,1,1h4.3c0.6,0,1-0.4,1-1C5273.7,2417.5,5273.3,2417,5272.7,2417z"></path></g><g><path d="M71.4,65.5H43.6c-1.4,0-2.6,1.2-2.6,2.6c0,1.4,1.2,2.6,2.6,2.6h27.8c1.4,0,2.6-1.2,2.6-2.6C74,66.7,72.8,65.5,71.4,65.5z     "></path><path d="M71.4,52.1H43.6c-1.4,0-2.6,1.2-2.6,2.6c0,1.4,1.2,2.6,2.6,2.6h27.8c1.4,0,2.6-1.2,2.6-2.6C74,53.3,72.8,52.1,71.4,52.1z     "></path><path d="M71.4,78.9H43.6c-1.4,0-2.6,1.2-2.6,2.6s1.2,2.6,2.6,2.6h27.8c1.4,0,2.6-1.2,2.6-2.6S72.8,78.9,71.4,78.9z"></path><path d="M87.3,38.2L69.4,20.3c-1.3-1.3-3-2-4.8-2H53.3v-7.2c0-5.9-10.7-8.6-21.3-8.6s-21.3,2.7-21.3,8.6v25.5     c0,4.7,6.8,7.4,14.9,8.3v45.8c0,3.8,3.1,6.8,6.9,6.8h50c3.8,0,6.9-3.1,6.9-6.8V43C89.3,41.2,88.6,39.5,87.3,38.2z M68.9,27.1     l11.6,11.6h-9.9c-0.9,0-1.7-0.8-1.7-1.7V27.1z M32,7.7c10,0,15.4,2.4,16.1,3.4c-0.8,1.1-6.2,3.5-16.1,3.5     c-10,0-15.4-2.4-16.1-3.4C16.7,10,22,7.7,32,7.7z M15.8,17c4.1,1.8,10.2,2.7,16.2,2.7c6,0,12-0.9,16.1-2.7v6.7     c-0.6,1.1-6,3.6-16.1,3.6c-10.2,0-15.7-2.6-16.1-3.4h0L15.8,17z M15.8,29.8c4.1,1.8,10.1,2.7,16.2,2.7c6,0,12-0.9,16.1-2.7v6.7     C47.4,37.6,42,40,32,40c-10.2,0-15.7-2.6-16.1-3.4L15.8,29.8z M82.5,92.3h-50c-0.9,0-1.7-0.8-1.7-1.7V45.2c0.4,0,0.8,0,1.2,0     c10.6,0,21.3-2.7,21.3-8.6V23.4h10.5V37c0,3.8,3.1,6.9,6.9,6.9h13.6v46.8C84.2,91.6,83.4,92.3,82.5,92.3z"></path></g></g></g></svg></g></svg>