<svg fill="#ffffff" xmlns="http://www.w3.org/2000/svg" xmlns:xlink="http://www.w3.org/1999/xlink" version="1.1" x="0px" y="0px" viewBox="0 0 100 100" style="enable-background:new 0 0 100 100;" xml:space="preserve"><g><g><path d="M39.6181641,47.831543c-2.7724609-2.7734375-4.2998047-6.4599609-4.2998047-10.3813477    s1.5273438-7.6079102,4.2998047-10.3813477C42.3916016,24.2958984,46.078125,22.7685547,50,22.7685547    s7.6083984,1.5273438,10.3818359,4.300293c2.7724609,2.7734375,4.2998047,6.4599609,4.2998047,10.3813477    s-1.5273438,7.6079102-4.2998047,10.3813477l2.1210938,2.1210938c3.3398438-3.3398438,5.1787109-7.7802734,5.1787109-12.5024414    s-1.8388672-9.1625977-5.1787109-12.5024414S54.7226563,19.7685547,50,19.7685547s-9.1630859,1.8393555-12.5029297,5.1791992    s-5.1787109,7.7802734-5.1787109,12.5024414s1.8388672,9.1625977,5.1787109,12.5024414L39.6181641,47.831543z"></path><path d="M63.2822266,37.4501953c0-3.5478516-1.3808594-6.8833008-3.8896484-9.3920898S53.5478516,24.1674805,50,24.1674805    s-6.8837891,1.3818359-9.3925781,3.890625s-3.8896484,5.8442383-3.8896484,9.3920898    c0,3.5473633,1.3808594,6.8828125,3.8896484,9.3920898l2.1210938-2.1210938    c-1.9414063-1.9423828-3.0107422-4.5249023-3.0107422-7.2709961c0-2.746582,1.0693359-5.3291016,3.0107422-7.2709961    C44.6708984,28.2373047,47.2529297,27.1674805,50,27.1674805s5.3291016,1.0698242,7.2714844,3.0117188    c1.9414063,1.9418945,3.0107422,4.5244141,3.0107422,7.2709961c0,2.7460938-1.0693359,5.3286133-3.0107422,7.2709961    l2.1210938,2.1210938C61.9013672,44.3330078,63.2822266,40.9975586,63.2822266,37.4501953z"></path><path d="M56.28125,43.7319336c1.6777344-1.6777344,2.6025391-3.9086914,2.6025391-6.2817383    s-0.9248047-4.6040039-2.6025391-6.2817383C54.6035156,29.4902344,52.3730469,28.565918,50,28.565918    s-4.6035156,0.9243164-6.28125,2.6025391c-1.6777344,1.6777344-2.6025391,3.9086914-2.6025391,6.2817383    s0.9248047,4.6040039,2.6025391,6.2817383l2.1210938-2.1210938c-1.1113281-1.1113281-1.7236328-2.5893555-1.7236328-4.1606445    c0-1.5717773,0.6123047-3.0493164,1.7236328-4.1606445S48.4287109,31.565918,50,31.565918    s3.0488281,0.6123047,4.1601563,1.7236328s1.7236328,2.5888672,1.7236328,4.1606445    c0,1.5712891-0.6123047,3.0493164-1.7236328,4.1606445L56.28125,43.7319336z"></path><path d="M30.7578125,91.9199219c0.7832031,0.2700195,1.6357422-0.1425781,1.9091797-0.9243164l0.8786621-2.5275879    l29.088501-10.989502l4.6988525,13.5170898C67.5488281,91.6147461,68.1289063,92.003418,68.75,92.003418    c0.1630859,0,0.3291016-0.0268555,0.4921875-0.0834961c0.7832031-0.2719727,1.1962891-1.1269531,0.9248047-1.909668    L52.8417969,40.1713867c0.6780396-0.7080078,1.1000366-1.6635742,1.1000366-2.7213135    c0-2.177002-1.7648315-3.9418335-3.9418335-3.9418335s-3.9418335,1.7648315-3.9418335,3.9418335    c0,1.0577393,0.4219971,2.0133057,1.1000366,2.7213135L29.8330078,90.0102539    C29.5615234,90.7929688,29.9746094,91.6479492,30.7578125,91.9199219z M49.913269,41.3832397    c0.029541,0.0006714,0.0570068,0.008728,0.086731,0.008728s0.0571899-0.0080566,0.086731-0.008728l3.5617676,10.2460938    l-10.5897217,9.47229L49.913269,41.3832397z M54.7158813,54.6998901l6.3363647,18.2278442l-18.5043945-7.34375    L54.7158813,54.6998901z M40.6414795,68.0553589l18.7501221,7.4412231l-24.5625,9.2792358L40.6414795,68.0553589z"></path></g></g></svg>